<?xml version="1.0" encoding="UTF-8" standalone="no"?><!-- Generator: Gravit.io --><svg xmlns="http://www.w3.org/2000/svg" xmlns:xlink="http://www.w3.org/1999/xlink" style="isolation:isolate" viewBox="0 0 24 24" width="24pt" height="24pt"><defs><clipPath id="_clipPath_KE3KpminmkEnWFr1c1zgQDIbdtCKVP9y"><rect width="24" height="24"/></clipPath></defs><g clip-path="url(#_clipPath_KE3KpminmkEnWFr1c1zgQDIbdtCKVP9y)"><path d=" M 0 0 L 24 0 L 24 24 L 0 24 L 0 0 Z " fill="none"/><path d=" M 19 3 L 14.82 3 C 14.4 1.84 13.3 1 12 1 C 10.7 1 9.6 1.84 9.18 3 L 5 3 C 3.9 3 3 3.9 3 5 L 3 19 C 3 20.1 3.9 21 5 21 L 19 21 C 20.1 21 21 20.1 21 19 L 21 5 C 21 3.9 20.1 3 19 3 Z  M 12 3 C 12.55 3 13 3.45 13 4 C 13 4.55 12.55 5 12 5 C 11.45 5 11 4.55 11 4 C 11 3.45 11.45 3 12 3 Z  M 14 17 L 7 17 L 7 15 L 14 15 L 14 17 L 14 17 Z  M 17 13 L 7 13 L 7 11 L 17 11 L 17 13 L 17 13 Z  M 17 9 L 7 9 L 7 7 L 17 7 L 17 9 L 17 9 Z " fill="rgb(21,59,107)"/></g></svg>