<?xml version="1.0" encoding="UTF-8" standalone="no"?><!-- Generator: Gravit.io --><svg xmlns="http://www.w3.org/2000/svg" xmlns:xlink="http://www.w3.org/1999/xlink" style="isolation:isolate" viewBox="0 0 24 24" width="24pt" height="24pt"><defs><clipPath id="_clipPath_bsc04gmtd4Ilu4z2gw8BXPRK6SYlnGE0"><rect width="24" height="24"/></clipPath></defs><g clip-path="url(#_clipPath_bsc04gmtd4Ilu4z2gw8BXPRK6SYlnGE0)"><path d=" M 0 0 L 24 0 L 24 24 L 0 24 L 0 0 Z " fill="none"/><path d=" M 19 3 L 18 3 L 18 1 L 16 1 L 16 3 L 8 3 L 8 1 L 6 1 L 6 3 L 5 3 C 3.89 3 3.01 3.9 3.01 5 L 3 19 C 3 20.1 3.89 21 5 21 L 19 21 C 20.1 21 21 20.1 21 19 L 21 5 C 21 3.9 20.1 3 19 3 Z  M 19 19 L 5 19 L 5 8 L 19 8 L 19 19 L 19 19 Z  M 7 10 L 12 10 L 12 15 L 7 15 L 7 10 Z " fill="rgb(21,59,107)"/></g></svg>